<svg width="190" height="40" viewBox="0 0 190 40" fill="none" xmlns="http://www.w3.org/2000/svg">
<path d="M71.14 16.76C72.5 16.76 73.5933 17.18 74.42 18.02C75.26 18.8467 75.68 20.0067 75.68 21.5V28H72.88V21.88C72.88 21.0133 72.66 20.3533 72.22 19.9C71.78 19.4333 71.18 19.2 70.42 19.2C69.66 19.2 69.0533 19.4333 68.6 19.9C68.16 20.3533 67.94 21.0133 67.94 21.88V28H65.14V21.88C65.14 21.0133 64.92 20.3533 64.48 19.9C64.04 19.4333 63.44 19.2 62.68 19.2C61.9067 19.2 61.2933 19.4333 60.84 19.9C60.4 20.3533 60.18 21.0133 60.18 21.88V28H57.38V16.92H60.18V18.26C60.54 17.7933 61 17.4267 61.56 17.16C62.1333 16.8933 62.76 16.76 63.44 16.76C64.3067 16.76 65.08 16.9467 65.76 17.32C66.44 17.68 66.9667 18.2 67.34 18.88C67.7 18.24 68.22 17.7267 68.9 17.34C69.5933 16.9533 70.34 16.76 71.14 16.76ZM83.257 28.18C82.1904 28.18 81.2304 27.9467 80.377 27.48C79.5237 27 78.8504 26.3267 78.357 25.46C77.877 24.5933 77.637 23.5933 77.637 22.46C77.637 21.3267 77.8837 20.3267 78.377 19.46C78.8837 18.5933 79.5704 17.9267 80.437 17.46C81.3037 16.98 82.2704 16.74 83.337 16.74C84.4037 16.74 85.3704 16.98 86.237 17.46C87.1037 17.9267 87.7837 18.5933 88.277 19.46C88.7837 20.3267 89.037 21.3267 89.037 22.46C89.037 23.5933 88.777 24.5933 88.257 25.46C87.7504 26.3267 87.057 27 86.177 27.48C85.3104 27.9467 84.337 28.18 83.257 28.18ZM83.257 25.74C83.7637 25.74 84.237 25.62 84.677 25.38C85.1304 25.1267 85.4904 24.7533 85.757 24.26C86.0237 23.7667 86.157 23.1667 86.157 22.46C86.157 21.4067 85.877 20.6 85.317 20.04C84.7704 19.4667 84.097 19.18 83.297 19.18C82.497 19.18 81.8237 19.4667 81.277 20.04C80.7437 20.6 80.477 21.4067 80.477 22.46C80.477 23.5133 80.737 24.3267 81.257 24.9C81.7904 25.46 82.457 25.74 83.257 25.74ZM97.2309 16.76C98.5509 16.76 99.6176 17.18 100.431 18.02C101.244 18.8467 101.651 20.0067 101.651 21.5V28H98.8509V21.88C98.8509 21 98.6309 20.3267 98.1909 19.86C97.7509 19.38 97.1509 19.14 96.3909 19.14C95.6176 19.14 95.0043 19.38 94.5509 19.86C94.1109 20.3267 93.8909 21 93.8909 21.88V28H91.0909V16.92H93.8909V18.3C94.2643 17.82 94.7376 17.4467 95.3109 17.18C95.8976 16.9 96.5376 16.76 97.2309 16.76ZM114.614 22.22C114.614 22.62 114.587 22.98 114.534 23.3H106.434C106.5 24.1 106.78 24.7267 107.274 25.18C107.767 25.6333 108.374 25.86 109.094 25.86C110.134 25.86 110.874 25.4133 111.314 24.52H114.334C114.014 25.5867 113.4 26.4667 112.494 27.16C111.587 27.84 110.474 28.18 109.154 28.18C108.087 28.18 107.127 27.9467 106.274 27.48C105.434 27 104.774 26.3267 104.294 25.46C103.827 24.5933 103.594 23.5933 103.594 22.46C103.594 21.3133 103.827 20.3067 104.294 19.44C104.76 18.5733 105.414 17.9067 106.254 17.44C107.094 16.9733 108.06 16.74 109.154 16.74C110.207 16.74 111.147 16.9667 111.974 17.42C112.814 17.8733 113.46 18.52 113.914 19.36C114.38 20.1867 114.614 21.14 114.614 22.22ZM111.714 21.42C111.7 20.7 111.44 20.1267 110.934 19.7C110.427 19.26 109.807 19.04 109.074 19.04C108.38 19.04 107.794 19.2533 107.314 19.68C106.847 20.0933 106.56 20.6733 106.454 21.42H111.714ZM127.257 16.92L120.397 33.24H117.417L119.817 27.72L115.377 16.92H118.517L121.377 24.66L124.277 16.92H127.257ZM130.007 28.14C129.5 28.14 129.08 27.9867 128.747 27.68C128.427 27.36 128.267 26.9667 128.267 26.5C128.267 26.0333 128.427 25.6467 128.747 25.34C129.08 25.02 129.5 24.86 130.007 24.86C130.5 24.86 130.907 25.02 131.227 25.34C131.547 25.6467 131.707 26.0333 131.707 26.5C131.707 26.9667 131.547 27.36 131.227 27.68C130.907 27.9867 130.5 28.14 130.007 28.14ZM140.102 16.76C141.422 16.76 142.489 17.18 143.302 18.02C144.115 18.8467 144.522 20.0067 144.522 21.5V28H141.722V21.88C141.722 21 141.502 20.3267 141.062 19.86C140.622 19.38 140.022 19.14 139.262 19.14C138.489 19.14 137.875 19.38 137.422 19.86C136.982 20.3267 136.762 21 136.762 21.88V28H133.962V16.92H136.762V18.3C137.135 17.82 137.609 17.4467 138.182 17.18C138.769 16.9 139.409 16.76 140.102 16.76ZM152.105 28.18C151.038 28.18 150.078 27.9467 149.225 27.48C148.371 27 147.698 26.3267 147.205 25.46C146.725 24.5933 146.485 23.5933 146.485 22.46C146.485 21.3267 146.731 20.3267 147.225 19.46C147.731 18.5933 148.418 17.9267 149.285 17.46C150.151 16.98 151.118 16.74 152.185 16.74C153.251 16.74 154.218 16.98 155.085 17.46C155.951 17.9267 156.631 18.5933 157.125 19.46C157.631 20.3267 157.885 21.3267 157.885 22.46C157.885 23.5933 157.625 24.5933 157.105 25.46C156.598 26.3267 155.905 27 155.025 27.48C154.158 27.9467 153.185 28.18 152.105 28.18ZM152.105 25.74C152.611 25.74 153.085 25.62 153.525 25.38C153.978 25.1267 154.338 24.7533 154.605 24.26C154.871 23.7667 155.005 23.1667 155.005 22.46C155.005 21.4067 154.725 20.6 154.165 20.04C153.618 19.4667 152.945 19.18 152.145 19.18C151.345 19.18 150.671 19.4667 150.125 20.04C149.591 20.6 149.325 21.4067 149.325 22.46C149.325 23.5133 149.585 24.3267 150.105 24.9C150.638 25.46 151.305 25.74 152.105 25.74ZM163.199 19.22V24.58C163.199 24.9533 163.285 25.2267 163.459 25.4C163.645 25.56 163.952 25.64 164.379 25.64H165.679V28H163.919C161.559 28 160.379 26.8533 160.379 24.56V19.22H159.059V16.92H160.379V14.18H163.199V16.92H165.679V19.22H163.199ZM177.993 22.22C177.993 22.62 177.966 22.98 177.913 23.3H169.813C169.879 24.1 170.159 24.7267 170.653 25.18C171.146 25.6333 171.753 25.86 172.473 25.86C173.513 25.86 174.253 25.4133 174.693 24.52H177.713C177.393 25.5867 176.779 26.4667 175.873 27.16C174.966 27.84 173.853 28.18 172.533 28.18C171.466 28.18 170.506 27.9467 169.653 27.48C168.813 27 168.153 26.3267 167.673 25.46C167.206 24.5933 166.972 23.5933 166.972 22.46C166.972 21.3133 167.206 20.3067 167.673 19.44C168.139 18.5733 168.793 17.9067 169.633 17.44C170.473 16.9733 171.439 16.74 172.533 16.74C173.586 16.74 174.526 16.9667 175.353 17.42C176.193 17.8733 176.839 18.52 177.293 19.36C177.759 20.1867 177.993 21.14 177.993 22.22ZM175.093 21.42C175.079 20.7 174.819 20.1267 174.313 19.7C173.806 19.26 173.186 19.04 172.453 19.04C171.759 19.04 171.173 19.2533 170.693 19.68C170.226 20.0933 169.939 20.6733 169.833 21.42H175.093ZM184.276 28.18C183.37 28.18 182.556 28.02 181.836 27.7C181.116 27.3667 180.543 26.92 180.116 26.36C179.703 25.8 179.476 25.18 179.436 24.5H182.256C182.31 24.9267 182.516 25.28 182.876 25.56C183.25 25.84 183.71 25.98 184.256 25.98C184.79 25.98 185.203 25.8733 185.496 25.66C185.803 25.4467 185.956 25.1733 185.956 24.84C185.956 24.48 185.77 24.2133 185.396 24.04C185.036 23.8533 184.456 23.6533 183.656 23.44C182.83 23.24 182.15 23.0333 181.616 22.82C181.096 22.6067 180.643 22.28 180.256 21.84C179.883 21.4 179.696 20.8067 179.696 20.06C179.696 19.4467 179.87 18.8867 180.216 18.38C180.576 17.8733 181.083 17.4733 181.736 17.18C182.403 16.8867 183.183 16.74 184.076 16.74C185.396 16.74 186.45 17.0733 187.236 17.74C188.023 18.3933 188.456 19.28 188.536 20.4H185.856C185.816 19.96 185.63 19.6133 185.296 19.36C184.976 19.0933 184.543 18.96 183.996 18.96C183.49 18.96 183.096 19.0533 182.816 19.24C182.55 19.4267 182.416 19.6867 182.416 20.02C182.416 20.3933 182.603 20.68 182.976 20.88C183.35 21.0667 183.93 21.26 184.716 21.46C185.516 21.66 186.176 21.8667 186.696 22.08C187.216 22.2933 187.663 22.6267 188.036 23.08C188.423 23.52 188.623 24.1067 188.636 24.84C188.636 25.48 188.456 26.0533 188.096 26.56C187.75 27.0667 187.243 27.4667 186.576 27.76C185.923 28.04 185.156 28.18 184.276 28.18Z" fill="white"/>
<path d="M34.1422 5.85781C30.3647 2.08031 25.3422 0 20 0C14.6578 0 9.63531 2.08031 5.85781 5.85781C2.08031 9.63531 0 14.6578 0 20C0 25.3422 2.08039 30.3646 5.85781 34.1422C9.63523 37.9198 14.6578 40 20 40C25.3422 40 30.3647 37.9197 34.1422 34.1422C37.9197 30.3647 40 25.3422 40 20C40 14.6578 37.9196 9.63539 34.1422 5.85781Z" fill="#04D361"/>
<g clip-path="url(#clip0_35212_417)">
<path d="M20.5714 8V33.1429" stroke="white" stroke-width="2" stroke-linecap="round" stroke-linejoin="round"/>
<path d="M26.2857 12.5714H17.7143C16.6534 12.5714 15.636 12.9929 14.8859 13.743C14.1357 14.4931 13.7143 15.5106 13.7143 16.5714C13.7143 17.6323 14.1357 18.6497 14.8859 19.3999C15.636 20.15 16.6534 20.5714 17.7143 20.5714H23.4286C24.4894 20.5714 25.5069 20.9929 26.257 21.743C27.0072 22.4932 27.4286 23.5106 27.4286 24.5714C27.4286 25.6323 27.0072 26.6497 26.257 27.3999C25.5069 28.15 24.4894 28.5714 23.4286 28.5714H13.7143" stroke="white" stroke-width="2" stroke-linecap="round" stroke-linejoin="round"/>
</g>
<defs>
<clipPath id="clip0_35212_417">
<rect width="27.4286" height="27.4286" fill="white" transform="translate(6.85715 6.85714)"/>
</clipPath>
</defs>
</svg>
